<?xml version="1.0" encoding="iso-8859-1"?>
<!-- Generator: Adobe Illustrator 19.0.0, SVG Export Plug-In . SVG Version: 6.00 Build 0)  -->
<svg version="1.1" id="Layer_1" xmlns="http://www.w3.org/2000/svg" xmlns:xlink="http://www.w3.org/1999/xlink" x="0px" y="0px"
	 viewBox="0 0 512 512" style="enable-background:new 0 0 512 512;" xml:space="preserve">
<path style="fill:#FF913C;" d="M330.203,282.539l-148.395-0.077l-28.972,209.462c-1.468,10.612,6.777,20.076,17.49,20.076h171.347
	c10.713,0,18.958-9.464,17.49-20.076L330.203,282.539z"/>
<path style="fill:#D77431;" d="M177.212,315.688c23.51,12.567,50.318,19.744,78.788,19.744s55.278-7.177,78.788-19.744l-4.585-33.15
	l-148.395-0.077L177.212,315.688z"/>
<path style="fill:#FF913C;" d="M317.799,61.752l58.055-58.055c7.897-7.897,21.401-2.304,21.401,8.865v155.131
	C397.254,117.375,357.411,86.773,317.799,61.752z"/>
<path style="fill:#FFAA50;" d="M397.254,167.693c0,78.013-63.242,141.254-141.254,141.254s-141.254-63.242-141.254-141.254
	S177.987,35.267,256,35.267S397.254,89.68,397.254,167.693z"/>
<path style="fill:#FF913C;" d="M194.201,167.693c0-67.988,39.038-118.021,91.024-129.765c-9.434-1.731-19.201-2.661-29.225-2.661
	c-25.994,0-50.266,6.155-71.187,17.097L136.146,3.697c-7.897-7.897-21.401-2.304-21.401,8.865v155.131c0-3.184,0-3.167,0,0
	c0,78.013,63.242,141.254,141.254,141.254c10.025,0,19.792-1.079,29.225-3.064C233.239,292.416,194.201,235.68,194.201,167.693z"/>
<g>
	<ellipse style="fill:#FAEBC8;" cx="225.1" cy="229.49" rx="30.899" ry="26.485"/>
	<ellipse style="fill:#FAEBC8;" cx="286.9" cy="229.49" rx="30.899" ry="26.485"/>
</g>
<circle style="fill:#FF913C;" cx="256" cy="211.84" r="17.657"/>
<path style="fill:#D77431;" d="M317.764,414.155c-0.397-4.854-4.509-8.462-9.527-8.065c-4.863,0.405-8.466,4.673-8.061,9.531
	l1.672,20.066c2.235,26.823-18.932,49.828-45.849,49.828l0,0c-26.916,0-48.084-23.005-45.849-49.828l1.672-20.066
	c0.405-4.858-3.199-9.126-8.061-9.531c-5-0.392-9.122,3.211-9.527,8.065L186.082,512h139.836L317.764,414.155z"/>
<g>
	<path style="fill:#553732;" d="M203.03,176.521c-4.88,0-8.828-3.953-8.828-8.828v-8.828c0-4.875,3.949-8.828,8.828-8.828
		s8.828,3.953,8.828,8.828v8.828C211.858,172.568,207.909,176.521,203.03,176.521z"/>
	<path style="fill:#553732;" d="M308.97,176.521c-4.88,0-8.828-3.953-8.828-8.828v-8.828c0-4.875,3.949-8.828,8.828-8.828
		c4.88,0,8.828,3.953,8.828,8.828v8.828C317.799,172.568,313.85,176.521,308.97,176.521z"/>
</g>
<g>
</g>
<g>
</g>
<g>
</g>
<g>
</g>
<g>
</g>
<g>
</g>
<g>
</g>
<g>
</g>
<g>
</g>
<g>
</g>
<g>
</g>
<g>
</g>
<g>
</g>
<g>
</g>
<g>
</g>
</svg>
