<?xml version="1.0" encoding="iso-8859-1"?>
<!-- Generator: Adobe Illustrator 19.0.0, SVG Export Plug-In . SVG Version: 6.00 Build 0)  -->
<svg version="1.1" id="Layer_1" xmlns="http://www.w3.org/2000/svg" xmlns:xlink="http://www.w3.org/1999/xlink" x="0px" y="0px"
	 viewBox="0 0 512 512" style="enable-background:new 0 0 512 512;" xml:space="preserve">
<g>
	<g>
		<path d="M499.604,0H12.396C7.931,0,4.312,3.62,4.312,8.084v400.977v30.181v64.674c0,4.465,3.62,8.084,8.084,8.084h487.208
			c4.465,0,8.084-3.62,8.084-8.084v-64.674v-25.87V8.084C507.688,3.62,504.069,0,499.604,0z M491.52,495.832H20.48v-48.505h471.04
			V495.832z M491.52,431.158H20.48v-19.535l125.643-178.331l131.34,182.645c1.359,1.89,3.468,3.102,5.785,3.326
			c2.317,0.223,4.619-0.562,6.315-2.156l102.194-96.063l99.762,95.773V431.158z M491.52,394.406l-94.107-90.343
			c-3.104-2.981-8-3.006-11.135-0.059l-101.072,95.008l-132.589-184.38c-1.519-2.113-3.962-3.364-6.563-3.364
			c-0.013,0-0.026,0-0.039,0c-2.616,0.013-5.063,1.29-6.57,3.428L20.48,383.551V16.168h471.04V394.406z"/>
	</g>
</g>
<g>
	<g>
		<path d="M335.764,155.217c-37.741,0-68.446,30.705-68.446,68.446c0,37.741,30.705,68.446,68.446,68.446
			s68.446-30.705,68.446-68.446C404.211,185.922,373.506,155.217,335.764,155.217z M335.764,275.941
			c-28.826,0-52.278-23.452-52.278-52.278c0-28.826,23.452-52.278,52.278-52.278c28.826,0,52.278,23.452,52.278,52.278
			C388.042,252.489,364.59,275.941,335.764,275.941z"/>
	</g>
</g>
<g>
	<g>
		<path d="M426.307,56.051c-10.351,0-19.637,4.656-25.87,11.985c-6.232-7.329-15.518-11.985-25.869-11.985
			c-10.352,0-19.637,4.656-25.869,11.985c-6.232-7.329-15.518-11.985-25.87-11.985c-18.722,0-33.954,15.232-33.954,33.954
			c0,4.465,3.62,8.084,8.084,8.084c4.465,0,8.084-3.62,8.084-8.084c0-9.807,7.979-17.785,17.785-17.785
			c9.807,0,17.785,7.979,17.785,17.785c0,4.465,3.62,8.084,8.084,8.084c4.465,0,8.084-3.62,8.084-8.084
			c0-9.807,7.979-17.785,17.785-17.785s17.785,7.979,17.785,17.785c0,4.465,3.62,8.084,8.084,8.084c4.465,0,8.084-3.62,8.084-8.084
			c0-9.807,7.979-17.785,17.785-17.785c9.807,0,17.785,7.979,17.785,17.785c0,4.465,3.62,8.084,8.084,8.084
			c4.465,0,8.084-3.62,8.084-8.084C460.261,71.282,445.029,56.051,426.307,56.051z"/>
	</g>
</g>
<g>
	<g>
		<path d="M146.055,125.036c-10.352,0-19.637,4.656-25.869,11.985c-6.232-7.329-15.517-11.985-25.87-11.985
			c-18.722,0-33.954,15.232-33.954,33.954c0,4.465,3.62,8.084,8.084,8.084c4.465,0,8.084-3.62,8.084-8.084
			c0-9.807,7.979-17.785,17.785-17.785s17.785,7.979,17.785,17.785c0,4.465,3.62,8.084,8.084,8.084c4.465,0,8.084-3.62,8.084-8.084
			c0-9.807,7.979-17.785,17.785-17.785s17.785,7.979,17.785,17.785c0,4.465,3.62,8.084,8.084,8.084c4.465,0,8.084-3.62,8.084-8.084
			C180.008,140.268,164.777,125.036,146.055,125.036z"/>
	</g>
</g>
<g>
</g>
<g>
</g>
<g>
</g>
<g>
</g>
<g>
</g>
<g>
</g>
<g>
</g>
<g>
</g>
<g>
</g>
<g>
</g>
<g>
</g>
<g>
</g>
<g>
</g>
<g>
</g>
<g>
</g>
</svg>
